<mxfile host="app.diagrams.net" agent="Mozilla/5.0 (Windows NT 10.0; Win64; x64) AppleWebKit/537.36 (KHTML, like Gecko) Chrome/123.0.0.0 Safari/537.36 OPR/109.0.0.0" version="24.7.6">
  <diagram name="PÃ¡gina-1" id="zGCjRj6lfy1SyjfNfFDX">
    <mxGraphModel dx="2352" dy="825" grid="1" gridSize="10" guides="1" tooltips="1" connect="1" arrows="1" fold="1" page="1" pageScale="1" pageWidth="827" pageHeight="1169" math="0" shadow="0">
      <root>
        <mxCell id="0" />
        <mxCell id="1" parent="0" />
        <mxCell id="d9W2TomCE3sCt6zPbYxF-51" style="edgeStyle=orthogonalEdgeStyle;rounded=0;orthogonalLoop=1;jettySize=auto;html=1;entryX=1;entryY=0.5;entryDx=0;entryDy=0;" edge="1" parent="1" source="d9W2TomCE3sCt6zPbYxF-1" target="d9W2TomCE3sCt6zPbYxF-48">
          <mxGeometry relative="1" as="geometry" />
        </mxCell>
        <mxCell id="d9W2TomCE3sCt6zPbYxF-1" value="Estudiantes" style="rounded=0;whiteSpace=wrap;html=1;" vertex="1" parent="1">
          <mxGeometry x="-240" y="270" width="120" height="60" as="geometry" />
        </mxCell>
        <mxCell id="d9W2TomCE3sCt6zPbYxF-29" style="edgeStyle=orthogonalEdgeStyle;rounded=0;orthogonalLoop=1;jettySize=auto;html=1;" edge="1" parent="1" source="d9W2TomCE3sCt6zPbYxF-2" target="d9W2TomCE3sCt6zPbYxF-28">
          <mxGeometry relative="1" as="geometry" />
        </mxCell>
        <mxCell id="d9W2TomCE3sCt6zPbYxF-2" value="Materias" style="rounded=0;whiteSpace=wrap;html=1;" vertex="1" parent="1">
          <mxGeometry x="50" y="150" width="120" height="60" as="geometry" />
        </mxCell>
        <mxCell id="d9W2TomCE3sCt6zPbYxF-30" style="edgeStyle=orthogonalEdgeStyle;rounded=0;orthogonalLoop=1;jettySize=auto;html=1;entryX=1;entryY=0.5;entryDx=0;entryDy=0;" edge="1" parent="1" source="d9W2TomCE3sCt6zPbYxF-3" target="d9W2TomCE3sCt6zPbYxF-28">
          <mxGeometry relative="1" as="geometry" />
        </mxCell>
        <mxCell id="d9W2TomCE3sCt6zPbYxF-3" value="Profesor" style="rounded=0;whiteSpace=wrap;html=1;" vertex="1" parent="1">
          <mxGeometry x="600" y="220" width="120" height="60" as="geometry" />
        </mxCell>
        <mxCell id="d9W2TomCE3sCt6zPbYxF-39" style="edgeStyle=orthogonalEdgeStyle;rounded=0;orthogonalLoop=1;jettySize=auto;html=1;entryX=0.5;entryY=1;entryDx=0;entryDy=0;" edge="1" parent="1" source="d9W2TomCE3sCt6zPbYxF-4" target="d9W2TomCE3sCt6zPbYxF-1">
          <mxGeometry relative="1" as="geometry" />
        </mxCell>
        <mxCell id="d9W2TomCE3sCt6zPbYxF-4" value="Nombre y Apellido" style="ellipse;whiteSpace=wrap;html=1;fillColor=#dae8fc;strokeColor=#6c8ebf;" vertex="1" parent="1">
          <mxGeometry x="-360" y="410" width="120" height="80" as="geometry" />
        </mxCell>
        <mxCell id="d9W2TomCE3sCt6zPbYxF-40" style="edgeStyle=orthogonalEdgeStyle;rounded=0;orthogonalLoop=1;jettySize=auto;html=1;entryX=0.5;entryY=1;entryDx=0;entryDy=0;" edge="1" parent="1" source="d9W2TomCE3sCt6zPbYxF-6" target="d9W2TomCE3sCt6zPbYxF-1">
          <mxGeometry relative="1" as="geometry" />
        </mxCell>
        <mxCell id="d9W2TomCE3sCt6zPbYxF-6" value="IDEstudiante-PK" style="ellipse;whiteSpace=wrap;html=1;fillColor=#f8cecc;strokeColor=#b85450;" vertex="1" parent="1">
          <mxGeometry x="-120" y="410" width="120" height="80" as="geometry" />
        </mxCell>
        <mxCell id="d9W2TomCE3sCt6zPbYxF-19" style="edgeStyle=orthogonalEdgeStyle;rounded=0;orthogonalLoop=1;jettySize=auto;html=1;entryX=0.5;entryY=1;entryDx=0;entryDy=0;" edge="1" parent="1" source="d9W2TomCE3sCt6zPbYxF-5" target="d9W2TomCE3sCt6zPbYxF-1">
          <mxGeometry relative="1" as="geometry" />
        </mxCell>
        <mxCell id="d9W2TomCE3sCt6zPbYxF-5" value="Fecha de Nac." style="ellipse;whiteSpace=wrap;html=1;fillColor=#dae8fc;strokeColor=#6c8ebf;" vertex="1" parent="1">
          <mxGeometry x="-240" y="410" width="120" height="80" as="geometry" />
        </mxCell>
        <mxCell id="d9W2TomCE3sCt6zPbYxF-37" style="edgeStyle=orthogonalEdgeStyle;rounded=0;orthogonalLoop=1;jettySize=auto;html=1;entryX=0.5;entryY=0;entryDx=0;entryDy=0;" edge="1" parent="1" source="d9W2TomCE3sCt6zPbYxF-20" target="d9W2TomCE3sCt6zPbYxF-2">
          <mxGeometry relative="1" as="geometry" />
        </mxCell>
        <mxCell id="d9W2TomCE3sCt6zPbYxF-20" value="Biografia" style="ellipse;whiteSpace=wrap;html=1;fillColor=#dae8fc;strokeColor=#6c8ebf;" vertex="1" parent="1">
          <mxGeometry x="-70" y="20" width="120" height="80" as="geometry" />
        </mxCell>
        <mxCell id="d9W2TomCE3sCt6zPbYxF-23" style="edgeStyle=orthogonalEdgeStyle;rounded=0;orthogonalLoop=1;jettySize=auto;html=1;" edge="1" parent="1" source="d9W2TomCE3sCt6zPbYxF-21" target="d9W2TomCE3sCt6zPbYxF-2">
          <mxGeometry relative="1" as="geometry" />
        </mxCell>
        <mxCell id="d9W2TomCE3sCt6zPbYxF-21" value="Cronograma" style="ellipse;whiteSpace=wrap;html=1;fillColor=#dae8fc;strokeColor=#6c8ebf;" vertex="1" parent="1">
          <mxGeometry x="50" y="20" width="120" height="80" as="geometry" />
        </mxCell>
        <mxCell id="d9W2TomCE3sCt6zPbYxF-38" style="edgeStyle=orthogonalEdgeStyle;rounded=0;orthogonalLoop=1;jettySize=auto;html=1;entryX=0.5;entryY=0;entryDx=0;entryDy=0;" edge="1" parent="1" source="d9W2TomCE3sCt6zPbYxF-22" target="d9W2TomCE3sCt6zPbYxF-2">
          <mxGeometry relative="1" as="geometry" />
        </mxCell>
        <mxCell id="d9W2TomCE3sCt6zPbYxF-22" value="IdMaterias" style="ellipse;whiteSpace=wrap;html=1;fillColor=#f8cecc;strokeColor=#b85450;" vertex="1" parent="1">
          <mxGeometry x="170" y="20" width="120" height="80" as="geometry" />
        </mxCell>
        <mxCell id="d9W2TomCE3sCt6zPbYxF-43" style="edgeStyle=orthogonalEdgeStyle;rounded=0;orthogonalLoop=1;jettySize=auto;html=1;entryX=0.5;entryY=1;entryDx=0;entryDy=0;" edge="1" parent="1" source="d9W2TomCE3sCt6zPbYxF-24" target="d9W2TomCE3sCt6zPbYxF-3">
          <mxGeometry relative="1" as="geometry" />
        </mxCell>
        <mxCell id="d9W2TomCE3sCt6zPbYxF-24" value="Nombre y Apellido" style="ellipse;whiteSpace=wrap;html=1;fillColor=#dae8fc;strokeColor=#6c8ebf;" vertex="1" parent="1">
          <mxGeometry x="480" y="350" width="120" height="80" as="geometry" />
        </mxCell>
        <mxCell id="d9W2TomCE3sCt6zPbYxF-27" style="edgeStyle=orthogonalEdgeStyle;rounded=0;orthogonalLoop=1;jettySize=auto;html=1;entryX=0.5;entryY=1;entryDx=0;entryDy=0;" edge="1" parent="1" source="d9W2TomCE3sCt6zPbYxF-25" target="d9W2TomCE3sCt6zPbYxF-3">
          <mxGeometry relative="1" as="geometry" />
        </mxCell>
        <mxCell id="d9W2TomCE3sCt6zPbYxF-25" value="Fecha de Nac" style="ellipse;whiteSpace=wrap;html=1;fillColor=#dae8fc;strokeColor=#6c8ebf;" vertex="1" parent="1">
          <mxGeometry x="600" y="350" width="120" height="80" as="geometry" />
        </mxCell>
        <mxCell id="d9W2TomCE3sCt6zPbYxF-44" style="edgeStyle=orthogonalEdgeStyle;rounded=0;orthogonalLoop=1;jettySize=auto;html=1;entryX=0.5;entryY=1;entryDx=0;entryDy=0;" edge="1" parent="1" source="d9W2TomCE3sCt6zPbYxF-26" target="d9W2TomCE3sCt6zPbYxF-3">
          <mxGeometry relative="1" as="geometry" />
        </mxCell>
        <mxCell id="d9W2TomCE3sCt6zPbYxF-26" value="IdProfesor-PK" style="ellipse;whiteSpace=wrap;html=1;fillColor=#f8cecc;strokeColor=#b85450;" vertex="1" parent="1">
          <mxGeometry x="720" y="350" width="120" height="80" as="geometry" />
        </mxCell>
        <mxCell id="d9W2TomCE3sCt6zPbYxF-32" style="edgeStyle=orthogonalEdgeStyle;rounded=0;orthogonalLoop=1;jettySize=auto;html=1;entryX=0.5;entryY=0;entryDx=0;entryDy=0;" edge="1" parent="1" source="d9W2TomCE3sCt6zPbYxF-28" target="d9W2TomCE3sCt6zPbYxF-31">
          <mxGeometry relative="1" as="geometry" />
        </mxCell>
        <mxCell id="d9W2TomCE3sCt6zPbYxF-28" value="N a N" style="rhombus;whiteSpace=wrap;html=1;" vertex="1" parent="1">
          <mxGeometry x="270" y="270" width="80" height="80" as="geometry" />
        </mxCell>
        <mxCell id="d9W2TomCE3sCt6zPbYxF-46" value="" style="edgeStyle=orthogonalEdgeStyle;rounded=0;orthogonalLoop=1;jettySize=auto;html=1;" edge="1" parent="1" source="d9W2TomCE3sCt6zPbYxF-31" target="d9W2TomCE3sCt6zPbYxF-45">
          <mxGeometry relative="1" as="geometry" />
        </mxCell>
        <mxCell id="d9W2TomCE3sCt6zPbYxF-31" value="Comision" style="rounded=0;whiteSpace=wrap;html=1;" vertex="1" parent="1">
          <mxGeometry x="250" y="460" width="120" height="60" as="geometry" />
        </mxCell>
        <mxCell id="d9W2TomCE3sCt6zPbYxF-41" style="edgeStyle=orthogonalEdgeStyle;rounded=0;orthogonalLoop=1;jettySize=auto;html=1;entryX=0.5;entryY=1;entryDx=0;entryDy=0;" edge="1" parent="1" source="d9W2TomCE3sCt6zPbYxF-33" target="d9W2TomCE3sCt6zPbYxF-31">
          <mxGeometry relative="1" as="geometry" />
        </mxCell>
        <mxCell id="d9W2TomCE3sCt6zPbYxF-33" value="IdComision-PK" style="ellipse;whiteSpace=wrap;html=1;fillColor=#f8cecc;strokeColor=#b85450;" vertex="1" parent="1">
          <mxGeometry x="130" y="585" width="120" height="80" as="geometry" />
        </mxCell>
        <mxCell id="d9W2TomCE3sCt6zPbYxF-36" style="edgeStyle=orthogonalEdgeStyle;rounded=0;orthogonalLoop=1;jettySize=auto;html=1;entryX=0.5;entryY=1;entryDx=0;entryDy=0;" edge="1" parent="1" source="d9W2TomCE3sCt6zPbYxF-34" target="d9W2TomCE3sCt6zPbYxF-31">
          <mxGeometry relative="1" as="geometry" />
        </mxCell>
        <mxCell id="d9W2TomCE3sCt6zPbYxF-34" value="IdProfesor-FK" style="ellipse;whiteSpace=wrap;html=1;fillColor=#fff2cc;strokeColor=#d6b656;" vertex="1" parent="1">
          <mxGeometry x="250" y="585" width="120" height="80" as="geometry" />
        </mxCell>
        <mxCell id="d9W2TomCE3sCt6zPbYxF-42" style="edgeStyle=orthogonalEdgeStyle;rounded=0;orthogonalLoop=1;jettySize=auto;html=1;entryX=0.5;entryY=1;entryDx=0;entryDy=0;" edge="1" parent="1" source="d9W2TomCE3sCt6zPbYxF-35" target="d9W2TomCE3sCt6zPbYxF-31">
          <mxGeometry relative="1" as="geometry" />
        </mxCell>
        <mxCell id="d9W2TomCE3sCt6zPbYxF-35" value="IdMateria-FK" style="ellipse;whiteSpace=wrap;html=1;fillColor=#fff2cc;strokeColor=#d6b656;" vertex="1" parent="1">
          <mxGeometry x="370" y="585" width="120" height="80" as="geometry" />
        </mxCell>
        <mxCell id="d9W2TomCE3sCt6zPbYxF-47" style="edgeStyle=orthogonalEdgeStyle;rounded=0;orthogonalLoop=1;jettySize=auto;html=1;entryX=1;entryY=0.5;entryDx=0;entryDy=0;" edge="1" parent="1" source="d9W2TomCE3sCt6zPbYxF-45" target="d9W2TomCE3sCt6zPbYxF-1">
          <mxGeometry relative="1" as="geometry" />
        </mxCell>
        <mxCell id="d9W2TomCE3sCt6zPbYxF-45" value="N a 1" style="rhombus;whiteSpace=wrap;html=1;rounded=0;" vertex="1" parent="1">
          <mxGeometry x="40" y="260" width="80" height="80" as="geometry" />
        </mxCell>
        <mxCell id="d9W2TomCE3sCt6zPbYxF-48" value="IdComision-FK" style="ellipse;whiteSpace=wrap;html=1;fillColor=#fff2cc;strokeColor=#d6b656;" vertex="1" parent="1">
          <mxGeometry x="-500" y="260" width="120" height="80" as="geometry" />
        </mxCell>
      </root>
    </mxGraphModel>
  </diagram>
</mxfile>
